<svg width="526" height="537" viewBox="0 0 526 537" fill="none" xmlns="http://www.w3.org/2000/svg">
<g clip-path="url(#clip0_204_20)">
<path d="M147.311 357.046L127.609 366.234L102.344 312.052C96.426 299.362 98.7281 289.891 100.408 282.976C101.815 277.19 102.59 274 99.8945 268.221C97.1994 262.441 94.2583 260.984 88.921 258.343C82.5436 255.185 73.8095 250.861 67.8914 238.169C61.9734 225.478 64.2755 216.007 65.9554 209.093C67.3618 203.305 68.137 200.117 65.4414 194.336C62.7463 188.556 59.8052 187.1 54.468 184.458C48.0916 181.3 39.3564 176.976 33.4384 164.285L28.8447 154.433L48.5471 145.246L53.1407 155.097C55.8359 160.877 58.777 162.333 64.1142 164.975C70.4916 168.132 79.2258 172.457 85.1438 185.149C91.0623 197.841 88.7601 207.312 87.0803 214.226C85.6734 220.013 84.8987 223.202 87.5938 228.982C90.2889 234.762 93.23 236.218 98.5672 238.86C104.945 242.017 113.679 246.342 119.597 259.033C125.515 271.725 123.213 281.196 121.533 288.11C120.126 293.897 119.351 297.086 122.046 302.865L147.311 357.046Z" fill="white"/>
<path d="M290.372 104.441L329.776 86.0661L348.151 125.471C350.688 130.912 348.334 137.379 342.894 139.916C337.453 142.453 330.986 140.099 328.449 134.658L323.855 124.807L304.153 133.994L361.574 257.134L420.681 229.572L321.917 17.7717C289.273 32.9937 275.15 71.7969 290.372 104.441Z" fill="#E8E8E8"/>
<path d="M136.715 116.053C124.395 149.9 141.846 187.324 175.694 199.643L379.974 273.995L402.279 212.711L136.715 116.053Z" fill="white"/>
<path d="M237.796 248.889L109.731 308.607C79.8073 322.561 66.8613 358.13 80.815 388.054C94.7683 417.976 130.338 430.923 160.262 416.97L288.327 357.252L272.913 298.477L237.796 248.889Z" fill="#F4642F"/>
<path d="M365.862 189.171L237.797 248.889L288.327 357.252L416.393 297.534C446.315 283.581 459.262 248.011 445.309 218.088C431.355 188.164 395.785 175.218 365.862 189.171Z" fill="#F28705"/>
<path d="M125.145 367.382C127.683 372.823 134.149 375.177 139.59 372.639L141.564 359.726L130.403 352.937C124.962 355.474 122.608 361.941 125.145 367.382Z" fill="white"/>
<path d="M130.403 352.937L139.591 372.64C145.031 370.103 147.385 363.636 144.848 358.195C142.311 352.754 135.844 350.4 130.403 352.937Z" fill="white"/>
<path d="M364.484 186.216L236.419 245.934L235.755 270.23L373.671 205.918C394.312 196.293 418.936 205.256 428.562 225.897C438.187 246.538 429.224 271.162 408.583 280.787L270.667 345.099L289.705 360.207L417.77 300.49C449.275 285.799 462.955 248.215 448.264 216.71C433.573 185.205 395.989 171.525 364.484 186.216Z" fill="#F4642F"/>
<path d="M152.453 400.223C131.812 409.848 107.188 400.886 97.5625 380.244C87.9373 359.603 96.8998 334.979 117.541 325.354L245.606 265.636L236.419 245.934L108.354 305.652C76.8486 320.343 63.1691 357.927 77.8601 389.432C92.5512 420.937 130.135 434.616 161.64 419.925L289.705 360.207L280.518 340.505L152.453 400.223Z" fill="#F28705"/>
<path d="M381.276 247.946C383.813 253.387 390.28 255.741 395.721 253.204L397.695 240.29L386.534 233.502C381.093 236.039 378.739 242.506 381.276 247.946Z" fill="white"/>
<path d="M386.534 233.502L395.722 253.204C401.162 250.667 403.516 244.2 400.979 238.759C398.442 233.318 391.975 230.965 386.534 233.502Z" fill="white"/>
<path d="M146.368 521.136L118.673 461.744L149.601 447.323L155.148 459.218L136.201 468.053L141.827 480.118L152.787 475.007L158.374 486.988L147.413 492.099L158.348 515.549L146.368 521.136ZM182.264 504.501L170.165 449.94L171.44 449.345L187.631 470.759L193.989 499.033L182.264 504.501ZM196.994 488.84L194.075 475.926L197.134 474.499L169.228 438.17L181.039 432.663L222.793 485.602L210.897 491.149L205.83 484.719L196.994 488.84ZM220.464 467.965L207.112 439.331C205.58 436.046 205.306 432.277 206.289 428.026C207.589 422.386 210.973 418.256 216.442 415.637L222.028 427.617C219.675 428.783 218.661 430.601 218.985 433.071C218.977 433.35 219.013 433.575 219.092 433.745L232.445 462.378C232.867 463.285 233.758 463.938 235.117 464.339C236.393 464.709 237.683 464.591 238.986 463.983L244.572 475.963C238.228 478.922 232.2 478.491 226.488 474.672C223.635 472.693 221.627 470.457 220.464 467.965ZM249.16 473.824L243.574 461.843C243.574 461.843 244.106 461.285 245.171 460.168C245.7 459.231 245.961 458.386 245.954 457.63C245.894 456.762 245.547 455.648 244.913 454.289L244.437 453.269L257.47 450.605C259.768 455.533 259.687 460.536 257.228 465.614C255.361 469.449 252.672 472.186 249.16 473.824ZM226.616 425.478L221.03 413.498C225.165 411.569 229.749 411.639 234.781 413.706C239.315 415.591 242.467 418.431 244.237 422.226L233.938 430.753L233.343 429.478C232.683 428.062 232.053 427.08 231.453 426.533C230.962 426.072 230.299 425.76 229.465 425.598C228.687 425.409 228.032 425.335 227.5 425.376L226.616 425.478ZM269.949 463.613L242.215 404.136L254.195 398.55L281.929 458.026L269.949 463.613ZM289.066 454.698L261.332 395.222L273.312 389.635L295.5 437.216L315.467 427.905L321.014 439.801L289.066 454.698ZM325.857 437.542L298.122 378.066L310.103 372.479L337.837 431.956L325.857 437.542ZM320.413 381.946L314.946 370.221L351.736 353.065L357.204 364.791L344.799 370.575L367.065 418.326L355.085 423.913L332.818 376.162L320.413 381.946ZM383.464 410.68L371.365 356.118L372.64 355.524L388.832 376.937L395.189 405.212L383.464 410.68ZM398.194 395.018L395.275 382.104L398.334 380.678L370.429 344.349L382.239 338.842L423.993 391.781L412.098 397.328L407.031 390.898L398.194 395.018ZM447.868 380.647L435.77 326.086L437.044 325.492L453.236 346.905L459.594 375.18L447.868 380.647ZM462.599 364.986L459.68 352.072L462.739 350.646L434.833 314.317L446.644 308.809L488.397 361.748L476.502 367.295L471.435 360.866L462.599 364.986ZM465.355 293.257L462.477 278.876L473.267 273.844L473.087 289.651L465.355 293.257ZM493.58 359.332L465.846 299.855L477.826 294.269L505.561 353.745L493.58 359.332Z" fill="white"/>
</g>
<defs>
<clipPath id="clip0_204_20">
<rect width="526" height="537" fill="white"/>
</clipPath>
</defs>
</svg>
